# xmcd
#
# Track frame offsets:
#	212
#	15062
#	30962
#	54737
#	74462
#	85562
#	101387
#	115262
#	128162
#	145412
#	156587
#	170837
#
# Disc length: 2540 seconds
#
# Revision: 2
# Processed by: cddbd v1.5.2PL0 Copyright (c) Steve Scherf et al.
# Submitted via: EasyCDDAExtractor 16.0.6.1
#
DISCID=9809ea0c
DTITLE=Varios - B-013 The Lady Sings The Blues D 2
DYEAR=1995
DGENRE=Blues
TTITLE0=Sarah aughan - Black Coffe
TTITLE1=Dorothy Moore - Misty Blue
TTITLE2=Tina Turner - Undercover Agent For The Blues
TTITLE3=Annie Lennox - Cold
TTITLE4=Sinead O'Connor - Why Don´t You Do Right
TTITLE5=Joan Armatrading - Show Some Emotion
TTITLE6=Etta James - I Just Want To Make Love To You
TTITLE7=ionne Warwick - Walk On By
TTITLE8=Nina Simone - Mr Bojangles
TTITLE9=Timi Yuro - Hurt
TTITLE10=Billie Holiday - The Child
TTITLE11=Big brother and The Holding Company - Turtle Blues
EXTD=
EXTT0=
EXTT1=
EXTT2=
EXTT3=
EXTT4=
EXTT5=
EXTT6=
EXTT7=
EXTT8=
EXTT9=
EXTT10=
EXTT11=
PLAYORDER=
